<svg xmlns="http://www.w3.org/2000/svg" width="2032.45" height="724.52" viewBox="0 0 2032.45 724.52"><title>shreyas_book1</title><path d="M551.14,637.88v-11.3c0-153.6.49-307.21-.26-460.82-.26-54.27,42.19-88.83,88-88.19C739.8,79,840.77,78,941.72,78h13.33V595.14H941.82c-95.88,0-191.78,1-287.65-.47-41.29-.63-76.6,7.47-100.5,44.68ZM753.6,143.53c-40.92,0-81.83.1-122.75-.08-8.58,0-15.17,2.39-15.18,11.85s6.87,11.8,15.3,11.79q121-.14,242,0c8.27,0,15.49-1.65,15.73-11.35.26-10.32-6.9-12.35-15.85-12.3C833.09,143.65,793.34,143.53,753.6,143.53Zm-2.4,96.15c40.53,0,81.06-.08,121.59.06,8.92,0,16.13-2.25,15.89-12.47-.22-9.54-7.23-11.56-15.63-11.48-22.21.22-44.43.07-66.64.07q-87.1,0-174.21-.05c-7,0-13.48.42-16.06,8.36-2.87,8.82,3.2,15.43,14.63,15.46C670.91,239.75,711.06,239.68,751.2,239.68Zm1.23,72.38c39.74,0,79.49-.11,119.24.07,9.11,0,17.27-1.33,17-12.44-.24-10.51-8.42-11.37-16.88-11.36q-119.82.14-239.65,0c-8.61,0-16.43,1.41-16.43,11.84,0,10.27,7.54,12,16.31,12C672.15,312,712.29,312.06,752.43,312.06Zm-.5,49c-40.12,0-80.25.08-120.37-.07-8.19,0-15.58,1.22-15.89,11-.33,10.34,6.91,12.45,15.8,12.44q120.38-.17,240.75,0c8.6,0,16.4-1.26,16.46-11.78S880.9,361,872.31,361C832.18,361.19,792.06,361.1,751.93,361.1Zm.37,72.5c-40.13,0-80.27.1-120.41-.09-8.7,0-16.31,1.29-16.21,11.83.09,9.62,7.18,11.69,15.48,11.69q121-.09,242,0c8.33,0,15.42-2,15.61-11.58.22-10.47-7.23-12-16-12C832.57,433.72,792.44,433.59,752.3,433.6Zm.17,72.26c-40.14,0-80.28.09-120.42-.07-8.69,0-16.41,1.47-16.37,11.84s7.76,12,16.42,12q119.83-.1,239.66,0c9.13,0,17.25-1.8,16.94-12.73-.3-10.48-8.53-11.21-17-11.17C832,506,792.22,505.86,752.47,505.86Z" transform="translate(1018.45 0.23)" style="fill:#9bdabe"/><path d="M527.82,635.76c-8.28-7.07-16.62-14.72-25.5-21.66-16.85-13.18-36.06-19.1-57.56-19.05q-153.18.32-306.36.09H123.92V78H136q153.18,0,306.36,0c49.85,0,85.44,35.56,85.45,85.3q.08,232.17,0,464.33ZM326.29,167q60.12,0,120.24,0c8.53,0,16.26-1.21,16.09-12s-8-11.6-16.45-11.59q-120.26.14-240.49-.06c-9,0-16.48,2.31-16.37,12s7.93,11.77,16.73,11.72C246.12,166.92,286.21,167,326.29,167Zm.36,72.64c39.7,0,79.4-.06,119.1,0,9,0,17.18-1.19,16.84-12.55-.32-10.68-8.43-11.36-16.8-11.35q-119.67.1-239.36,0c-9.28,0-17.45,2-17.1,12.5.32,9.56,8.26,11.57,17,11.51C246.47,239.55,286.56,239.68,326.65,239.68Zm.1,48.7c-40.08,0-80.16.11-120.25-.08-9.18-.05-17.52,1.82-17.17,12.42.32,9.6,8.23,11.47,17,11.45q119.65-.29,239.33-.06c9,0,17.15-1.05,16.91-12.44-.23-10.88-8.51-11.32-16.76-11.31Q386.29,288.44,326.75,288.38Zm-.56,72.72c-40.54,0-81.08.12-121.61-.09-8.66,0-15.48,2.74-15.3,11.84s7.09,11.68,15.69,11.67q121-.22,242.06-.06c8.17,0,15.34-1.48,15.6-11.42.28-10.93-7.43-12-16-12C406.49,361.16,366.34,361.1,326.19,361.1Zm.44,72.49c-40.15,0-80.3.15-120.45-.11-8.74-.05-16.74,1.43-16.89,11.38-.14,9.73,7.52,12.22,16.42,12.2q120.45-.18,240.91-.05c8.58,0,16.19-1.51,16-12.24-.17-10.09-7.36-11.26-15.54-11.23C406.94,433.67,366.78,433.59,326.63,433.59Zm0,72.27c-40.08,0-80.17.13-120.25-.11-8.71-.05-16.83,1.58-17.06,11.31-.26,10.35,7.95,12.66,17.19,12.65q119.65-.19,239.33-.06c8.35,0,16.4-1,16.76-11.55.38-11.56-8-12.31-16.89-12.29C406,505.92,366.31,505.86,326.62,505.86Z" transform="translate(1018.45 0.23)" style="fill:#9bdabe"/><path d="M1014,654.39H998.47c-118.9,0-237.8.18-356.7-.2-16.54-.05-29.21,4.73-39.36,18.15-9.39,12.41-20.18,23.75-30.44,35.5-19,21.8-45.76,22-64.69.35-11-12.61-22.35-25-32.76-38.14-9-11.4-20.22-15.81-34.53-15.78q-180.1.33-360.21.12H65v-496H99.8v438.7c0,19.57,1.8,21.38,21.29,21.38,106.42,0,212.85.19,319.28-.13,26.09-.08,46.84,9.12,62.42,30.18,7.42,10,15.39,19.63,23.14,29.4,10,12.56,17,12.67,26.81.35q12.74-16,25.34-32.13c14.67-18.8,33.93-27.72,57.72-27.7q161.4.12,322.79,0c18.62,0,20.57-2,20.57-20.93q0-212.31,0-424.62V158.25H1014Z" transform="translate(1018.45 0.23)" style="fill:#9bdabe"/><path d="M-959.39,79.18c0-21.72-.06-41.85,0-62,.06-14,3.26-17.33,17-17.34C-833-.18-723.53-.36-614.1,0c36.31.11,64.68,16.41,85.76,45.74,2,2.75,3.89,5.55,6.28,9,5.92-7.49,10.92-14.76,16.87-21.16C-484.91,11.72-459.76,0-429.91-.07q164.73-.3,329.46-.06c13,0,16.28,3.49,16.35,16.78.11,20.46,0,40.91,0,62.52,14.35,0,27.45,0,40.54,0C-26.78,79.2-25,80.91-25,98q0,195,0,390.09,0,57.06,0,114.11c0,16.16-2,18.2-18.13,18.2-123.41,0-246.81.25-370.21-.3-13.8-.06-23.5,3.47-31.6,14.59-7.51,10.33-16.46,19.6-24.85,29.27-30.24,34.88-73.28,35.06-103.46.42C-583,653.31-593,642.48-602,630.83c-6.09-7.87-13-10.57-22.84-10.55q-185.1.42-370.21.18c-3.88,0-7.76,0-11.64-.11-7.56-.22-11.24-4.4-11.6-11.74-.15-3.1-.11-6.21-.11-9.31q0-249.19,0-498.38c0-21,.78-21.75,21.45-21.74ZM-510.12,580.7l2.51,1.47c23.79-37,58.94-45.11,100.05-44.48,95.42,1.46,190.88.47,286.32.47h13.17V23.4h-13.27c-100.48,0-201,1-301.46-.43-45.59-.64-87.84,33.76-87.58,87.78.74,152.9.26,305.8.26,458.7Zm-23.21-2.11v-8.06q0-231.09,0-462.19c0-49.51-35.44-84.88-85.06-84.91q-152.49-.11-305,0h-12V538.16H-921q152.47,0,305-.1c21.41,0,40.53,5.85,57.3,19C-549.88,563.94-541.58,571.55-533.33,578.59Zm483.94,18.54V103.27H-84.07V540.55c0,18.85-1.94,20.82-20.48,20.83q-160.65,0-321.3,0c-23.68,0-42.85,8.87-57.46,27.58q-12.53,16.05-25.22,32c-9.76,12.26-16.76,12.16-26.68-.35-7.72-9.72-15.66-19.28-23-29.26-15.51-21-36.17-30.12-62.14-30-105.94.31-211.87.13-317.81.13-19.4,0-21.19-1.8-21.19-21.28V103.41H-994V597.13h14.71q179.28,0,358.55-.12c14.25,0,25.38,4.36,34.38,15.71,10.36,13.06,21.61,25.42,32.6,38,18.85,21.52,45.45,21.35,64.4-.35,10.21-11.69,20.95-23,30.3-35.33,10.1-13.36,22.72-18.12,39.18-18.06,118.35.37,236.71.19,355.06.19Z" transform="translate(1018.45 0.23)" style="fill:#a22d9d"/><path d="M-308.6,88.62c39.57,0,79.13.12,118.69-.09,8.91,0,16,2,15.78,12.25-.25,9.65-7.43,11.3-15.66,11.29q-120.43-.13-240.87,0c-8.39,0-15.23-2.19-15.23-11.73s6.57-11.84,15.11-11.8C-390,88.72-349.33,88.62-308.6,88.62Z" transform="translate(1018.45 0.23)" style="fill:#a22d9d"/><path d="M-311,184.33c-39.95,0-79.91.07-119.87-.05-11.38,0-17.42-6.61-14.56-15.39,2.57-7.91,9-8.33,16-8.32q86.7.12,173.41.05c22.11,0,44.22.14,66.34-.07,8.36-.08,15.33,1.93,15.55,11.42.24,10.18-6.94,12.45-15.81,12.42C-230.29,184.25-270.64,184.33-311,184.33Z" transform="translate(1018.45 0.23)" style="fill:#a22d9d"/><path d="M-309.76,256.37c-39.95,0-79.91-.1-119.86.08-8.72,0-16.22-1.69-16.23-11.91,0-10.39,7.78-11.8,16.36-11.79q119.26.13,238.55,0c8.41,0,16.55.85,16.8,11.31.26,11.06-7.86,12.43-16.93,12.39C-230.63,256.27-270.2,256.37-309.76,256.37Z" transform="translate(1018.45 0.23)" style="fill:#a22d9d"/><path d="M-310.25,305.19c39.94,0,79.88.09,119.82-.06,8.55,0,16.36,1,16.3,11.62s-7.83,11.73-16.39,11.72q-119.82-.14-239.64,0c-8.86,0-16.06-2.09-15.73-12.38.31-9.76,7.66-11,15.81-11C-390.14,305.27-350.19,305.19-310.25,305.19Z" transform="translate(1018.45 0.23)" style="fill:#a22d9d"/><path d="M-309.89,377.35c39.95,0,79.91.12,119.86-.09,8.77-.05,16.18,1.48,16,11.9-.2,9.51-7.25,11.54-15.54,11.53q-120.43-.12-240.87,0c-8.27,0-15.32-2.06-15.41-11.64-.1-10.49,7.47-11.81,16.14-11.77C-389.79,377.46-349.84,377.35-309.89,377.35Z" transform="translate(1018.45 0.23)" style="fill:#a22d9d"/><path d="M-309.72,449.28c39.57,0,79.13.09,118.7-.07,8.41,0,16.61.7,16.91,11.12.3,10.88-7.78,12.68-16.87,12.67q-119.28-.12-238.56,0c-8.61,0-16.29-1.8-16.34-12s7.65-11.82,16.3-11.79C-389.63,449.38-349.67,449.28-309.72,449.28Z" transform="translate(1018.45 0.23)" style="fill:#a22d9d"/><path d="M-733.94,112c-39.9,0-79.8-.12-119.69.09-8.77,0-16.55-2-16.66-11.67s7.35-12,16.29-11.93q119.7.28,239.38.06c8.44,0,16.21.82,16.38,11.53s-7.52,12-16,12Q-674.1,111.95-733.94,112Z" transform="translate(1018.45 0.23)" style="fill:#a22d9d"/><path d="M-733.58,184.33c-39.91,0-79.81-.14-119.72.1-8.75,0-16.65-1.94-17-11.45-.35-10.42,7.78-12.47,17-12.46q119.13.25,238.26.06c8.34,0,16.4.67,16.72,11.3.34,11.3-7.83,12.51-16.76,12.49C-654.55,184.27-694.06,184.33-733.58,184.33Z" transform="translate(1018.45 0.23)" style="fill:#a22d9d"/><path d="M-733.48,232.81q59.26,0,118.54,0c8.21,0,16.46.43,16.69,11.26.23,11.34-7.92,12.39-16.84,12.38q-119.11-.12-238.23.06c-8.76,0-16.64-1.83-16.95-11.39-.35-10.55,7.95-12.41,17.09-12.37C-813.28,232.92-773.38,232.81-733.48,232.81Z" transform="translate(1018.45 0.23)" style="fill:#a22d9d"/><path d="M-734,305.19c40,0,79.93.06,119.89,0,8.52,0,16.2,1,15.92,11.92-.26,9.9-7.4,11.38-15.53,11.38q-120.47-.09-240.94.05c-8.56,0-15.43-2.69-15.62-11.61s6.6-11.83,15.23-11.79C-814.74,305.31-774.39,305.19-734,305.19Z" transform="translate(1018.45 0.23)" style="fill:#a22d9d"/><path d="M-733.6,377.35c40,0,79.94.07,119.9-.06,8.15,0,15.31,1.15,15.47,11.18.18,10.69-7.4,12.2-15.93,12.19q-119.91,0-239.81,0c-8.86,0-16.48-2.46-16.34-12.15.15-9.9,8.11-11.38,16.81-11.32C-813.54,377.5-773.57,377.35-733.6,377.35Z" transform="translate(1018.45 0.23)" style="fill:#a22d9d"/><path d="M-733.61,449.28c39.51,0,79,.06,118.53,0,8.83,0,17.19.72,16.81,12.23-.35,10.53-8.36,11.5-16.68,11.5q-119.11,0-238.23,0c-9.2,0-17.37-2.28-17.12-12.59.24-9.68,8.32-11.31,17-11.25C-813.41,449.42-773.51,449.28-733.61,449.28Z" transform="translate(1018.45 0.23)" style="fill:#a22d9d"/></svg>