<svg xmlns="http://www.w3.org/2000/svg" width="993.34" height="690.51" viewBox="0 0 993.34 690.51"><title>shreyas_book2</title><path d="M508.31,582.29V571c0-153.6.49-307.21-.26-460.82-.26-54.27,42.19-88.83,88-88.19C697,23.4,798,22.42,898.9,22.42h13.33V539.55H899c-95.88,0-191.78,1-287.65-.47-41.29-.63-76.6,7.47-100.5,44.68ZM710.77,87.94c-40.92,0-81.83.1-122.75-.08-8.58,0-15.17,2.39-15.18,11.85s6.87,11.8,15.3,11.79q121-.14,242,0c8.27,0,15.49-1.65,15.73-11.35.26-10.32-6.9-12.35-15.85-12.3C790.26,88.06,750.51,87.94,710.77,87.94Zm-2.4,96.15c40.53,0,81.06-.08,121.59.06,8.92,0,16.13-2.25,15.89-12.47-.22-9.54-7.23-11.56-15.63-11.48-22.21.22-44.43.07-66.64.07q-87.11,0-174.21-.05c-7,0-13.48.42-16.06,8.36-2.87,8.82,3.2,15.43,14.63,15.46C628.08,184.16,668.23,184.09,708.37,184.09Zm1.23,72.38c39.74,0,79.49-.11,119.24.07,9.11,0,17.27-1.33,17-12.44-.24-10.51-8.42-11.37-16.88-11.36q-119.82.15-239.65,0c-8.61,0-16.43,1.41-16.43,11.84,0,10.27,7.54,12,16.31,12,40.13-.17,80.27-.11,120.41-.11Zm-.5,49c-40.12,0-80.25.08-120.37-.07-8.19,0-15.58,1.22-15.89,11-.33,10.34,6.91,12.45,15.8,12.44q120.39-.16,240.75,0c8.6,0,16.4-1.26,16.46-11.78s-7.78-11.65-16.37-11.65c-40.13.19-80.25.1-120.38.1Zm.37,72.5c-40.13,0-80.27.1-120.41-.09-8.7,0-16.31,1.29-16.21,11.83.09,9.62,7.18,11.69,15.48,11.69q121-.09,242,0c8.33,0,15.42-2,15.61-11.58.22-10.47-7.23-12-16-12-40.2.31-80.33.18-120.47.19Zm.17,72.26c-40.14,0-80.28.09-120.42-.07-8.69,0-16.41,1.47-16.37,11.84s7.76,12.05,16.42,12.05q119.85-.09,239.66,0c9.13,0,17.25-1.8,16.94-12.73-.3-10.48-8.53-11.21-17-11.17-39.7.26-79.48.12-119.23.12Z" style="fill:#9bdabe"/><path d="M485,580.17c-8.28-7.07-16.62-14.72-25.5-21.66-16.85-13.18-36.06-19.1-57.56-19q-153.18.33-306.36.09H81.09V22.41H399.53C449.38,22.41,485,58,485,107.71q.09,232.17,0,464.33ZM283.46,111.41H403.7c8.53,0,16.26-1.21,16.09-12s-8-11.6-16.45-11.59q-120.25.14-240.49-.06c-9,0-16.48,2.31-16.37,12s7.93,11.77,16.73,11.72C203.29,111.33,243.38,111.41,283.46,111.41Zm.36,72.64q59.55,0,119.1,0c9,0,17.18-1.19,16.84-12.55-.32-10.68-8.43-11.36-16.8-11.35q-119.67.1-239.36,0c-9.28,0-17.45,2-17.1,12.5.32,9.56,8.26,11.57,17.05,11.51,40.09-.2,80.18-.07,120.27-.07Zm.1,48.7c-40.08,0-80.16.11-120.25-.08-9.18,0-17.52,1.82-17.17,12.42.32,9.6,8.23,11.47,17,11.45q119.67-.29,239.33-.06c9,0,17.15-1.05,16.91-12.44-.23-10.88-8.51-11.32-16.76-11.31q-59.52.12-119.06.06Zm-.56,72.72c-40.54,0-81.08.12-121.61-.09-8.66,0-15.48,2.74-15.3,11.84s7.09,11.68,15.69,11.67q121-.21,242.06-.06c8.17,0,15.34-1.48,15.6-11.42.28-10.93-7.43-12-16-12-40.14.16-80.29.1-120.44.1ZM283.8,378c-40.15,0-80.3.15-120.45-.11-8.74-.05-16.74,1.43-16.89,11.38-.14,9.73,7.52,12.22,16.42,12.2q120.45-.18,240.91-.05c8.58,0,16.19-1.51,16-12.24-.17-10.09-7.36-11.26-15.54-11.23-40.14.17-80.3.09-120.45.09Zm0,72.27c-40.08,0-80.17.13-120.25-.11-8.71-.05-16.83,1.58-17.06,11.31-.26,10.35,8,12.66,17.19,12.65Q283.33,473.9,403,474c8.35,0,16.4-1,16.76-11.55.38-11.56-8-12.31-16.89-12.29-39.71.15-79.4.09-119.09.09Z" style="fill:#9bdabe"/><path d="M971.17,598.8H955.64c-118.9,0-237.8.18-356.7-.2-16.54-.05-29.21,4.73-39.36,18.15-9.39,12.41-20.18,23.75-30.44,35.5-19,21.8-45.76,22-64.69.35-11-12.61-22.35-25-32.76-38.14-9-11.4-20.22-15.81-34.53-15.78Q217.07,599,37,598.8H22.17v-496H57V541.5c0,19.57,1.8,21.38,21.29,21.38,106.42,0,212.85.19,319.28-.13,26.09-.08,46.84,9.12,62.42,30.18,7.42,10,15.39,19.63,23.14,29.4,10,12.56,17,12.67,26.81.35q12.73-16,25.34-32.13c14.67-18.8,33.93-27.72,57.72-27.7q161.4.12,322.79,0c18.62,0,20.57-2,20.57-20.93V102.66h34.84Z" style="fill:#9bdabe"/><path d="M59,79.42c0-21.72-.06-41.85,0-62C59.07,3.42,62.27.09,76,.08c109.44,0,218.87-.22,328.3.1C440.62.29,469,16.59,490.07,45.92c2,2.75,3.89,5.55,6.28,9,5.92-7.49,10.92-14.76,16.87-21.16C533.49,12,558.64.24,588.49.17Q753.22-.13,918,.11c13,0,16.28,3.49,16.35,16.78.11,20.46,0,40.91,0,62.52h40.54c16.75,0,18.5,1.73,18.5,18.86v504.2c0,16.16-2,18.2-18.13,18.2-123.41,0-246.81.25-370.21-.3-13.8-.06-23.5,3.47-31.6,14.59-7.51,10.33-16.46,19.6-24.85,29.27-30.24,34.88-73.28,35.06-103.46.42-9.69-11.1-19.69-21.93-28.69-33.58-6.09-7.87-13-10.57-22.84-10.55q-185.1.42-370.21.18c-3.88,0-7.76,0-11.64-.11-7.56-.22-11.24-4.4-11.6-11.74C0,605.75,0,602.64,0,599.54V101.16c0-21,.78-21.75,21.45-21.74ZM508.28,580.94l2.51,1.47c23.79-37,58.94-45.11,100.05-44.48,95.42,1.46,190.88.47,286.32.47h13.17V23.64H897.06c-100.48,0-201,1-301.46-.43C550,22.57,507.76,57,508,111c.74,152.9.26,305.8.26,458.7Zm-23.21-2.11V108.58c0-49.51-35.44-84.88-85.06-84.91q-152.49-.12-305,0H83V538.4H97.4q152.49,0,305-.1c21.41,0,40.53,5.85,57.3,19C468.52,564.18,476.82,571.79,485.07,578.83ZM969,597.37V103.51H934.33V540.79c0,18.85-1.94,20.82-20.48,20.83H592.55c-23.68,0-42.85,8.87-57.46,27.58q-12.52,16-25.22,32c-9.76,12.26-16.76,12.16-26.68-.35-7.72-9.72-15.66-19.28-23-29.26-15.51-21-36.17-30.12-62.14-30-105.94.31-211.87.13-317.81.13-19.4,0-21.19-1.8-21.19-21.28V103.65H24.4V597.37H39.08q179.28,0,358.55-.12c14.25,0,25.38,4.36,34.38,15.71,10.36,13.06,21.61,25.42,32.6,38,18.85,21.52,45.45,21.35,64.4-.35,10.21-11.69,21-23,30.3-35.33,10.1-13.36,22.72-18.12,39.18-18.06,118.35.37,236.71.19,355.06.19Z" style="fill:#a22d9d"/><path d="M709.8,88.86c39.57,0,79.13.12,118.69-.09,8.91,0,16,2,15.78,12.25-.25,9.65-7.43,11.3-15.66,11.29q-120.43-.14-240.87,0c-8.39,0-15.23-2.19-15.23-11.73s6.57-11.84,15.11-11.8C628.4,89,669.07,88.86,709.8,88.86Z" style="fill:#a22d9d"/><path d="M707.4,184.57c-40,0-79.91.07-119.87,0-11.38,0-17.42-6.61-14.56-15.39,2.57-7.91,9-8.33,16-8.32q86.7.12,173.41.05c22.11,0,44.22.14,66.34-.07,8.36-.08,15.33,1.93,15.55,11.42.24,10.18-6.94,12.45-15.81,12.42C788.11,184.49,747.76,184.57,707.4,184.57Z" style="fill:#a22d9d"/><path d="M708.64,256.61c-40,0-79.91-.1-119.86.08-8.72,0-16.22-1.69-16.23-11.91,0-10.39,7.78-11.8,16.36-11.79q119.26.12,238.55,0c8.41,0,16.55.85,16.8,11.31.26,11.06-7.86,12.43-16.93,12.39C787.77,256.51,748.2,256.61,708.64,256.61Z" style="fill:#a22d9d"/><path d="M708.15,305.43c39.94,0,79.88.09,119.82-.06,8.55,0,16.36,1,16.3,11.62s-7.83,11.73-16.39,11.72q-119.82-.15-239.64,0c-8.86,0-16.06-2.09-15.73-12.38.31-9.76,7.66-11,15.81-11C628.26,305.51,668.21,305.43,708.15,305.43Z" style="fill:#a22d9d"/><path d="M708.51,377.59c40,0,79.91.12,119.86-.09,8.77-.05,16.18,1.48,16,11.9-.2,9.51-7.25,11.54-15.54,11.53q-120.42-.12-240.87,0c-8.27,0-15.32-2.06-15.41-11.64-.1-10.49,7.47-11.81,16.14-11.77C628.61,377.7,668.56,377.59,708.51,377.59Z" style="fill:#a22d9d"/><path d="M708.68,449.52c39.57,0,79.13.09,118.7-.07,8.41,0,16.61.7,16.91,11.12.3,10.88-7.78,12.68-16.87,12.67q-119.28-.12-238.56,0c-8.61,0-16.29-1.8-16.34-12s7.65-11.82,16.3-11.79C628.77,449.62,668.73,449.52,708.68,449.52Z" style="fill:#a22d9d"/><path d="M284.46,112.24c-39.9,0-79.8-.12-119.69.09-8.77,0-16.55-2-16.66-11.67s7.35-12,16.29-11.93q119.7.27,239.38.06c8.44,0,16.21.82,16.38,11.53s-7.52,12-16,12Q344.31,112.19,284.46,112.24Z" style="fill:#a22d9d"/><path d="M284.82,184.57c-39.91,0-79.81-.14-119.72.1-8.75,0-16.65-1.94-17-11.45-.35-10.42,7.78-12.47,17-12.46q119.13.24,238.26.06c8.34,0,16.4.67,16.72,11.3.34,11.3-7.83,12.51-16.76,12.49C363.85,184.51,324.34,184.57,284.82,184.57Z" style="fill:#a22d9d"/><path d="M284.92,233.05H403.46c8.21,0,16.46.43,16.69,11.26.23,11.34-7.92,12.39-16.84,12.38q-119.12-.12-238.23.06c-8.76,0-16.64-1.83-17-11.39-.35-10.55,8-12.41,17.09-12.37C205.12,233.16,245,233.05,284.92,233.05Z" style="fill:#a22d9d"/><path d="M284.4,305.43q60,0,119.89,0c8.52,0,16.2,1,15.92,11.92-.26,9.9-7.4,11.38-15.53,11.38q-120.46-.09-240.94,0c-8.56,0-15.43-2.69-15.62-11.61s6.6-11.83,15.23-11.79C203.66,305.55,244,305.43,284.4,305.43Z" style="fill:#a22d9d"/><path d="M284.8,377.59c40,0,79.94.07,119.9-.06,8.15,0,15.31,1.15,15.47,11.18.18,10.69-7.4,12.2-15.93,12.19H164.43c-8.86,0-16.48-2.46-16.34-12.15.15-9.9,8.11-11.38,16.81-11.32C204.86,377.74,244.83,377.59,284.8,377.59Z" style="fill:#a22d9d"/><path d="M284.79,449.52q59.26,0,118.53,0c8.83,0,17.19.72,16.81,12.23-.35,10.53-8.36,11.5-16.68,11.5H165.22c-9.2,0-17.37-2.28-17.12-12.59.24-9.68,8.32-11.31,17-11.25C205,449.66,244.89,449.52,284.79,449.52Z" style="fill:#a22d9d"/></svg>