<svg xmlns="http://www.w3.org/2000/svg" width="780.19" height="469.08" viewBox="0 0 780.19 469.08"><title>shreyas_blr1</title><path d="M597.62,433.59H575.36c-7.44,0-7-.05-7.65-7.28-.65-6.94-1.09-14.4-4-20.47-2.69-5.59-8.3-9.94-13.15-14.25-3.86-3.41-8.37-2.14-12.34.51-10.8,7.21-17.38,16.64-16.93,30.34.39,11.41.06,11.42-11.43,11.42-14.18,0-28.37-.25-42.53.13-5.12.14-7.86-1.93-10.1-6.06-10.87-20.06-3.84-46.51,15.76-58.59,16.94-10.44,33.89-20.86,50.94-31.12a17.92,17.92,0,0,1,7.78-2.47c7.89-.5,15.82-.68,23.72-.63a15.43,15.43,0,0,1,7.52,1.89c17.48,10.49,35,21,52.18,31.93,21.1,13.41,27.19,40.16,14.4,60.57a7.87,7.87,0,0,1-7.66,4.14C613.78,433.48,605.7,433.59,597.62,433.59Z" transform="translate(-154 -285.69)" style="fill:#9bdabe"/><path d="M273.86,668.2q-22.49,0-45,0c-5.88,0-6.58-.69-6.6-6.51,0-11.2.07-22.4-.06-33.6,0-4.34,1.54-6.22,6.09-6.2q45.46.17,90.91,0c3.77,0,5.46,1.32,5.43,5.13-.06,12-.08,24,0,36.07,0,3.81-1.56,5.21-5.36,5.17C304.16,668.12,289,668.2,273.86,668.2Zm-.62-14.7c3.5.1,6.9-3.14,7.11-6.8.21-3.46-3.09-7.2-6.5-7.38-3.57-.2-7.28,3.42-7.32,7.12A7,7,0,0,0,273.24,653.5Z" transform="translate(-154 -285.69)" style="fill:#9bdabe"/><path d="M814.74,681.36c15,0,30,.11,45-.07,4.4-.06,6.22,1.27,6.13,5.91-.22,12.19-.18,24.38,0,36.57,0,3.71-1.4,5-4.93,4.92-11.52-.11-23.06-.15-34.59,0-3.73,0-4.94-1.38-4.72-5,.24-3.94.12-7.91,0-11.86-.15-5-2.74-8-6.83-8-4.74,0-6.8,3.18-7.26,7.23a93.07,93.07,0,0,0-.26,12.83c.08,3.28-1,4.81-4.52,4.77-11.69-.13-23.39-.11-35.08,0-3.22,0-4.33-1.27-4.3-4.41.1-12.69.14-25.38,0-38.06-.05-4.07,1.8-5,5.43-4.92C784.1,681.43,799.42,681.36,814.74,681.36Z" transform="translate(-154 -285.69)" style="fill:#9bdabe"/><path d="M273.7,681.36c15.16,0,30.32.1,45.47-.07,4,0,5.6,1.18,5.54,5.33-.18,12.35-.14,24.71,0,37.07,0,3.49-.93,5.08-4.73,5-11.52-.17-23.06-.14-34.59,0-3.45,0-4.72-1.33-4.58-4.69.15-3.78.13-7.58-.06-11.36-.27-5.49-3.22-8.85-7.41-8.8-4.37.06-6.84,3.21-6.92,8.93-.06,4-.15,7.91,0,11.86.12,3.06-1.24,4-4.11,4q-17.79-.1-35.58,0c-3.42,0-4.55-1.45-4.52-4.79q.21-18.54,0-37.08c0-4,1.46-5.54,5.51-5.5C243.06,681.45,258.38,681.36,273.7,681.36Z" transform="translate(-154 -285.69)" style="fill:#9bdabe"/><path d="M814.14,667.93c-14.84,0-29.69-.16-44.52.09-4.89.09-6.36-1.81-6.29-6.39.19-11.21.16-22.43,0-33.65-.05-4.32,1.32-6.16,6-6.13q45,.24,90,0c4.7,0,6.52,1.68,6.45,6.36q-.24,16.82,0,33.64c.06,4.5-1.75,6.15-6.18,6.11C844.48,667.84,829.31,667.93,814.14,667.93Zm7.39-21.43a7.35,7.35,0,0,0-6.65-7.2c-3.49-.11-7.28,3.74-7.18,7.32a7.34,7.34,0,0,0,7,6.88A7.16,7.16,0,0,0,821.53,646.5Z" transform="translate(-154 -285.69)" style="fill:#9bdabe"/><path d="M544.35,447.94c21.92,0,43.84.09,65.76-.09,4.64,0,6.49,1.28,6.29,6.16-.34,8.4-.23,16.82,0,25.22.09,3.68-1.3,5-4.89,4.92-4.61-.17-9.23-.12-13.84,0-3.51.08-5.15-1.36-5.07-5a105,105,0,0,0-.29-11.36c-.34-3.84-2.21-6.7-6.51-6.64s-6.46,2.9-6.68,7-.17,7.92-.07,11.87c.08,2.92-1,4.19-4,4.13-6.6-.12-13.19-.08-19.78,0-2.75,0-3.89-1.22-3.84-3.89.06-3.13,0-6.27,0-9.4-.08-6.28-2.74-9.69-7.45-9.62-4.54.08-7.07,3.37-7.16,9.39-.05,3.13-.09,6.26,0,9.39.07,2.81-1,4.33-4,4.29-6.27-.09-12.53,0-18.79,0-3,0-4.55-1.27-4.46-4.47.11-3.79.05-7.59-.08-11.38-.14-4.19-2.21-6.9-6.56-7.16s-6.72,2.53-7.2,6.55a82.55,82.55,0,0,0-.29,11.35c.07,3.49-1.27,5.23-4.91,5.15-4.61-.11-9.24-.17-13.84,0-3.56.15-5-1.11-5-4.83.19-8.74.23-17.48,0-26.21-.12-4.18,1.51-5.4,5.48-5.38C499.51,448,521.93,447.94,544.35,447.94Z" transform="translate(-154 -285.69)" style="fill:#9bdabe"/><path d="M544,518.66H459.43c-7,0-7,0-6.94-6.79,0-10.09,3.13-13.19,13.29-13.19q78.38,0,156.76,0c10.4,0,15.76,7.08,13,17.34-.29,1.05-1.85,2.08-3,2.47-1.35.44-2.93.17-4.42.17Z" transform="translate(-154 -285.69)" style="fill:#9bdabe"/><path d="M543.51,743.85q83.1,0,166.18-.06c4.32,0,6.74.65,6.55,5.87-.18,5-3.06,5.05-6.56,5.05H624.12q-122.91,0-245.81,0c-3.08,0-6.92,1.13-7.09-4.27-.19-5.9.21-6.56,6.12-6.56Z" transform="translate(-154 -285.69)" style="fill:#9bdabe"/><path d="M543.79,728.66H411.73c-6.79,0-7.1-.46-6.88-6.87.12-3.53,1.6-5.19,5.13-5,.82,0,1.65,0,2.47,0q131.57,0,263.13,0c3.31,0,7.24-1,7.61,4.49.46,6.66,0,7.38-6.85,7.38Z" transform="translate(-154 -285.69)" style="fill:#9bdabe"/><path d="M931.37,573.45c0,9.9-.13,19.8.07,29.7.08,3.93-1,5.57-5.25,5.49-13.52-.23-27.05-.19-40.58,0-4.15,0-5.93-1.22-5.89-5.63q.22-29.7,0-59.4c0-4.25,1.61-5.93,5.83-5.89,13.52.11,27.05.16,40.57,0,4.25-.06,5.38,1.68,5.31,5.6C931.25,553.32,931.37,563.39,931.37,573.45Zm-32.63-1h0c0,3,0,5.92,0,8.88.08,4.14,2.56,6.49,6.33,6.93s6.82-1.8,7.09-5.38a144.39,144.39,0,0,0,0-20.59c-.24-3.64-3.57-5.23-6.88-5-3.46.29-6.28,2.19-6.44,6.24C898.65,566.57,898.74,569.53,898.74,572.49Z" transform="translate(-154 -285.69)" style="fill:#9bdabe"/><path d="M156.68,573.16c0-9.88.15-19.76-.07-29.64-.1-4.36,1.14-6.21,5.84-6.11,13.17.25,26.34.19,39.51,0,4.65-.06,6.43,1.69,6.39,6.41q-.24,29.13,0,58.28c0,4.59-1.36,6.49-6.2,6.4q-20-.36-40,0c-4.51.1-5.63-1.59-5.54-5.74C156.83,592.92,156.68,583,156.68,573.16ZM189.3,573h-.06c0-3.29.17-6.59-.05-9.86a5.78,5.78,0,0,0-6.31-5.64c-2.39.19-6.37,2.59-6.57,4.35a98.08,98.08,0,0,0-.07,21.46c.21,1.92,4.28,4.57,6.76,4.8,3.37.3,6.07-2.32,6.27-6.23C189.42,578.94,189.3,576,189.3,573Z" transform="translate(-154 -285.69)" style="fill:#9bdabe"/><path d="M339.19,572.56c0-10,.1-20.11-.06-30.17-.06-3.93,1.18-5.6,5.39-5.54,13.51.2,27,.1,40.54,0,3.13,0,5.61.56,5.8,4.39.17,3.37-.14,6.46-4.35,7-4.75.62-6.36,3.94-6.48,8-.23,7.74-.15,15.49,0,23.24.06,4.7,2.44,7.81,7.17,8.68,2.79.52,3.88,2,3.76,4.76-.15,3.46-.05,6.92,0,10.39,0,3.23-1.5,4.83-4.83,4.82-14.17,0-28.35-.09-42.52,0-3.74,0-4.36-2-4.35-5C339.22,593,339.19,582.78,339.19,572.56Zm32.62.45h-.06c0-3.29.17-6.59-.05-9.86a5.7,5.7,0,0,0-6.28-5.64c-2.41.22-6.37,2.59-6.56,4.35a98.17,98.17,0,0,0-.1,21.47c.2,1.91,4.26,4.53,6.77,4.79,3.44.35,6-2.37,6.25-6.23C372,578.94,371.81,576,371.81,573Z" transform="translate(-154 -285.69)" style="fill:#9bdabe"/><path d="M749.24,573.46c0,9.9-.13,19.79.06,29.68.08,4-1.09,5.57-5.31,5.5q-20.28-.33-40.56,0c-4.21.06-5.62-1.65-5.38-5.57a59.26,59.26,0,0,0,0-7.42c-.27-4.11.16-7.16,5.37-8.12,3.59-.66,5.48-3.93,5.45-7.9-.06-7.59,0-15.17,0-22.76,0-4.72-1.85-8-6.93-8.57-4-.46-3.77-3.47-3.79-6.3,0-3.21,1.82-4.27,4.77-4.26,13.85,0,27.69.08,41.54,0,3.72,0,4.89,1.62,4.85,5.1C749.17,553,749.24,563.24,749.24,573.46Zm-33-1.12h0c0,3.14-.11,6.27,0,9.4a6.46,6.46,0,0,0,6.17,6.56c3.73.42,6.89-1.68,7.16-5.31a146.44,146.44,0,0,0,0-20.63c-.23-3.6-3.43-5.4-6.78-5.15s-6.29,2.22-6.5,6.24C716.13,566.4,716.25,569.38,716.25,572.34Z" transform="translate(-154 -285.69)" style="fill:#9bdabe"/><path d="M652,548.14h-5.8c-26.87,0-53.75-.08-80.63.09-4.32,0-7.76-.93-10.28-4.51a3.76,3.76,0,0,0-.35-.34c-9.92-10.5-12.33-10.6-22,.09a13,13,0,0,1-10.68,4.77c-26.71-.19-53.42-.09-80.14-.1h-6.87c1.18-1.76,1.75-2.78,2.49-3.67.41-.48,1.15-.66,1.63-1.1,9.07-8.47,19.62-11,32.06-10.47,24.2,1,48.46.61,72.69.61,27,0,54.07-.1,81.11-.47,6.07-.08,11.24,1.07,16,5,3.58,3,7.61,5.51,11.44,8.23Z" transform="translate(-154 -285.69)" style="fill:#9bdabe"/><path d="M723.84,728.65c-6.92,0-13.84-.11-20.76.05-3.47.08-5.11-1-5.06-4.75q.22-18.78,0-37.56c0-3.91,1.58-5.13,5.34-5.09q20.5.23,41,0c3.68,0,4.92,1.29,4.88,4.88-.12,12.69-.14,25.37,0,38.06,0,3.57-1.41,4.54-4.71,4.46C737.68,728.54,730.76,728.65,723.84,728.65Zm-.77-29.9c-4,0-6.91,3.18-6.81,7.44a7.21,7.21,0,0,0,6.81,7c3.76,0,7-3.54,6.85-7.54A6.81,6.81,0,0,0,723.07,698.75Z" transform="translate(-154 -285.69)" style="fill:#9bdabe"/><path d="M364.38,729.22c-6.76,0-13.51-.11-20.26,0-3.5.08-5.05-1-5-4.81.17-12.36.15-24.72,0-37.08,0-3.84,1.42-5.26,5.24-5.22,13.51.13,27,.1,40.53,0,4,0,6.08,1.37,6,5.76q-.23,18,0,36.08c.05,3.94-1.65,5.28-5.31,5.23C378.55,729.16,371.46,729.22,364.38,729.22Zm-.63-15.72c3.59.06,7.3-3.61,7.32-7.24,0-3.41-3.43-7.07-6.8-7.24-3.54-.17-7.35,3.4-7.51,7A7.47,7.47,0,0,0,363.75,713.5Z" transform="translate(-154 -285.69)" style="fill:#9bdabe"/><path d="M364.61,668.19c-6.93,0-13.86-.11-20.78,0-3.45.08-4.69-1.38-4.67-4.7q.12-18.3,0-36.62c0-3.48,1.16-5.06,4.89-5,13.69.14,27.38.11,41.07,0,3.88,0,5.82,1.38,5.79,5.47q-.12,17.8,0,35.63c0,3.84-1.84,5.27-5.5,5.22C378.46,668.13,371.53,668.19,364.61,668.19Zm-.68-14.69c3.39,0,7.05-3.66,7.12-7s-3.66-7.1-7-7.17c-3.5-.08-7.38,3.84-7.31,7.36A7.47,7.47,0,0,0,363.93,653.5Z" transform="translate(-154 -285.69)" style="fill:#9bdabe"/><path d="M830,754.7q-46.74,0-93.48,0c-3.27,0-6.84.46-7-4.66-.15-5.81.4-6.66,6.25-6.66q94.71,0,189.43-.06c4,0,6,.92,6,5.51s-2,5.94-6.23,5.93C893.33,754.66,861.67,754.7,830,754.7Z" transform="translate(-154 -285.69)" style="fill:#9bdabe"/><path d="M906.06,667.93c-6.75,0-13.51-.11-20.26,0-4.07.08-6.11-1.35-6.06-5.71q.19-17.29,0-34.6c0-4.27,1.78-5.82,6-5.78,13.51.15,27,.17,40.53,0,3.93-.06,5.22,1.44,5.18,5.2-.12,11.86-.15,23.72,0,35.59.06,4.16-1.63,5.46-5.6,5.33C919.25,667.77,912.65,667.93,906.06,667.93Zm6.45-21.33c.12-3.55-3.11-7.14-6.58-7.29s-7,3.17-7.15,6.71a7,7,0,0,0,6.74,7.49A7.3,7.3,0,0,0,912.51,646.6Z" transform="translate(-154 -285.69)" style="fill:#9bdabe"/><path d="M723.82,621.94c6.75,0,13.5.16,20.24-.06,4-.13,5.21,1.57,5.16,5.27q-.29,18-.28,36.05c0,3.26-1.18,4.78-4.64,4.76q-20.47-.15-41,0c-3.51,0-5.24-1.36-5.23-4.9q0-18,0-36c0-3.77,1.74-5.22,5.5-5.12C710.32,622.07,717.07,621.94,723.82,621.94Zm6.06,24.59a7.12,7.12,0,0,0-6.54-7.23c-3.44-.08-6.89,3.24-7.06,6.81a6.84,6.84,0,0,0,6.78,7.39A7.06,7.06,0,0,0,729.88,646.53Z" transform="translate(-154 -285.69)" style="fill:#9bdabe"/><path d="M181.78,667.93c-6.59,0-13.19-.14-19.77.05-3.72.11-5.42-1.08-5.38-5,.15-12,.11-24.06,0-36.09,0-3.47,1.14-5,4.89-5q20.51.24,41,0c4.36,0,5.8,1.88,5.76,6-.11,11.37-.15,22.74,0,34.11.07,4.58-2,6.11-6.29,6C195.29,667.79,188.53,667.93,181.78,667.93Zm.71-28.95c-3.67,0-7.12,3.76-7,7.55a7.35,7.35,0,0,0,7,7A7.08,7.08,0,0,0,189.3,646,7,7,0,0,0,182.49,639Z" transform="translate(-154 -285.69)" style="fill:#9bdabe"/><path d="M256.5,743.35H350c6.58,0,7,.53,6.65,7-.14,2.81-1.1,4.39-4.08,4.28-.83,0-1.65,0-2.48,0H163.59c-3.46,0-7.1.66-6.93-4.94.19-6,.19-6.39,6.34-6.4Z" transform="translate(-154 -285.69)" style="fill:#9bdabe"/><path d="M545.21,657.73c6.42,0,12.84,0,19.26,0,3.12,0,4.41,1.31,4.38,4.46q-.12,17.77,0,35.56c0,3.38-1.39,4.74-4.71,4.72q-19.24-.09-38.51,0c-3.5,0-5.12-1.51-5.1-5,.05-11.53.08-23,0-34.57,0-3.89,1.76-5.24,5.44-5.17,6.41.11,12.83,0,19.25,0Z" transform="translate(-154 -285.69)" style="fill:#9bdabe"/><path d="M906.07,681.36c6.91,0,13.83.09,20.75,0,3-.05,4.61.69,4.58,4.09q-.15,19.76,0,39.53c0,2.81-1.14,3.61-3.82,3.76-14.61.82-14.6.88-14.75-13.82a26.71,26.71,0,0,0-.08-3c-.48-3.76-1.46-7.42-6.07-7.66-4-.21-7.82,3.69-8,7.84s-.21,8.24-.08,12.35c.1,2.94-1.07,4-4,4.24-14.82,1.14-14.82,1.2-14.82-13.28,0-9.39.19-18.79-.06-28.17-.13-4.61,1.68-6.1,6.1-5.94C892.55,681.54,899.31,681.36,906.07,681.36Z" transform="translate(-154 -285.69)" style="fill:#9bdabe"/><path d="M632.68,702.45c-6.25,0-12.51-.11-18.77,0-3.53.08-5.1-1.2-5.07-4.87q.15-17.54,0-35.08c0-3.66,1.47-4.91,5-4.88q18.76.18,37.54,0c3.64,0,5.47,1.07,5.42,5.06-.15,11.53-.13,23.06,0,34.59,0,3.87-1.59,5.27-5.35,5.17C645.2,702.33,638.94,702.45,632.68,702.45Z" transform="translate(-154 -285.69)" style="fill:#9bdabe"/><path d="M455,657.71c6.42,0,12.84.1,19.26,0,3.49-.08,5.13,1.12,5.09,4.83-.12,11.69-.1,23.38,0,35.08,0,3.61-1.51,4.94-5.06,4.91q-18.76-.16-37.54,0c-3.72,0-5.41-1.22-5.37-5.13q.19-17.29,0-34.59c-.05-3.95,1.66-5.21,5.36-5.12C442.76,657.82,448.85,657.71,455,657.71Z" transform="translate(-154 -285.69)" style="fill:#9bdabe"/><path d="M182.35,681.36c6.92,0,13.84.08,20.76,0,3.42-.06,5.22,1,5.19,4.78q-.13,19,0,38.08c0,3.16-1.26,4.3-4.36,4.5-14.49.92-14.48,1-14.53-13.44,0-1.32,0-2.64,0-4-.07-4.25-2.16-6.87-6.39-7.39-3.89-.48-7.07,2.25-7.51,6.84a109.93,109.93,0,0,0-.22,13.34c.1,3.45-1.39,4.52-4.71,4.63-13.87.46-13.86.55-13.86-13.49,0-9.23.28-18.47-.12-27.69-.22-5.17,1.61-6.57,6.51-6.27C169.47,681.65,175.92,681.36,182.35,681.36Z" transform="translate(-154 -285.69)" style="fill:#9bdabe"/><path d="M273.62,588c15,0,30,.13,45-.09,4.58-.06,6,1.54,5.93,6.05-.33,16.26,1.6,13.77-13.5,13.83-27.18.12-54.37.05-81.55,0-6.47,0-7.22-.7-7.18-7,.09-14.06-1.74-12.38,12.28-12.49,13-.1,26,0,39.05,0Z" transform="translate(-154 -285.69)" style="fill:#9bdabe"/><path d="M814.22,608.18c-15,0-30-.11-45,.08-4.22,0-6-1.33-5.91-5.64.35-17.13-2.34-14.14,13.8-14.25,27.17-.17,54.34,0,81.51,0,6.21,0,6.5.29,6.51,6.36,0,15.88,1,13.34-13.42,13.47C839.25,608.27,826.73,608.19,814.22,608.18Z" transform="translate(-154 -285.69)" style="fill:#9bdabe"/><path d="M905.4,523c-7.25,0-14.5-.12-21.75,0-4.7.11-6.62-2.29-6.75-6.58a16,16,0,0,1,6-13.51c6.23-5.11,12.5-10.2,19-14.9a6.49,6.49,0,0,1,5.9-.06c6.87,4.5,13.49,9.41,20.1,14.31,5.66,4.19,6.94,10.07,6,16.73-.48,3.53-2.94,4-5.77,4Z" transform="translate(-154 -285.69)" style="fill:#9bdabe"/><path d="M182.43,523c-7.25,0-14.49,0-21.73,0-5.51,0-6.45-1.19-6.68-6.76a15.82,15.82,0,0,1,6.17-13.83c6.05-4.8,12.25-9.41,18.23-14.3,2.35-1.92,4.09-1.91,6.49-.09,6.29,4.76,12.82,9.19,19.15,13.9a16.94,16.94,0,0,1,7.09,15.44c-.23,3.67-2.09,5.71-6,5.68C197.57,523,190,523,182.43,523Z" transform="translate(-154 -285.69)" style="fill:#9bdabe"/><path d="M722.71,523c-7.24,0-14.49-.12-21.72,0-4.49.1-7-2.41-6.37-6.23.65-4.33,1.8-9.48,4.66-12.39,6.19-6.28,13.51-11.47,20.6-16.79,1.11-.84,3.9-.69,5.15.15,7,4.67,13.73,9.61,20.43,14.64,5.07,3.8,6.54,9.15,6.1,15.3-.27,3.71-2,5.3-5.64,5.27-7.73,0-15.47,0-23.21,0Z" transform="translate(-154 -285.69)" style="fill:#9bdabe"/><path d="M364.66,522.43c-7.24,0-14.49-.11-21.73,0-4.66.09-6.38-2-6.45-6.56-.08-5.91,2-10.58,6.57-14.17,5.81-4.58,11.77-9,17.5-13.66,2.42-2,4.37-2.32,7-.36,6.44,4.84,13.11,9.37,19.54,14.21,4.66,3.5,6.66,8.42,6.66,14.2,0,4.23-2,6.37-6.34,6.32C379.81,522.37,372.24,522.43,364.66,522.43Z" transform="translate(-154 -285.69)" style="fill:#9bdabe"/><path d="M630.13,563.47c19.3,0,38.59.08,57.89-.05,4,0,6,.82,5.93,5.45-.06,4.42-1.66,5.66-5.85,5.65-38.59-.1-77.18,0-115.77-.08A6.13,6.13,0,0,1,567,565c.68-1.07,3.11-1.46,4.73-1.46C591.21,563.44,610.67,563.47,630.13,563.47Z" transform="translate(-154 -285.69)" style="fill:#9bdabe"/><path d="M458.42,574.12c-19.45,0-38.9-.07-58.34,0-4,0-6-.8-6-5.45,0-4.49,1.79-5.58,5.89-5.57q58.11.15,116.21,0c4.45,0,5.59,1.65,5.65,5.8s-1.66,5.28-5.58,5.26C497,574,477.71,574.12,458.42,574.12Z" transform="translate(-154 -285.69)" style="fill:#9bdabe"/><path d="M671.42,644.84c0-17,.13-34-.08-50.94-.06-4.33,1.26-5.84,5.63-5.68,4.11.16,6.31.92,6.29,5.81q-.25,51.19,0,102.38c0,5-2.33,6-6.68,6.14-4.91.15-5.19-2.57-5.17-6.27C671.47,679.13,671.42,662,671.42,644.84Z" transform="translate(-154 -285.69)" style="fill:#9bdabe"/><path d="M416.69,645.25c0,17.13-.08,34.26.06,51.39,0,4.11-1.08,6-5.57,5.91-4.33-.11-6.23-1.52-6.22-6.09q.17-51.39,0-102.77c0-5.19,2.86-5.24,6.64-5.44,4.37-.24,5.19,1.8,5.16,5.61C416.62,611,416.69,628.12,416.69,645.25Z" transform="translate(-154 -285.69)" style="fill:#9bdabe"/><path d="M505.8,645.25q0,25.23,0,50.44c0,6-3.74,8.67-9.34,6.42-1.18-.48-2.24-2.7-2.34-4.18-.3-4.76-.12-9.55-.12-14.33,0-29.67,0-59.34.06-89,0-2,.57-5.36,1.49-5.59a17.37,17.37,0,0,1,8.62.22c.95.27,1.56,3.32,1.57,5.1C505.85,611.3,505.8,628.28,505.8,645.25Z" transform="translate(-154 -285.69)" style="fill:#9bdabe"/><path d="M594.2,645.78c0,16.79-.07,33.59.06,50.39,0,4.12-.78,6.5-5.68,6.39-4.61-.12-5.94-2.14-5.93-6.4q.12-51.13,0-102.27c0-4.94,2.42-5.54,6.46-5.66,4.35-.12,5.21,1.85,5.18,5.67C594.13,611.19,594.2,628.49,594.2,645.78Z" transform="translate(-154 -285.69)" style="fill:#9bdabe"/><path d="M633,643.46c-6.41,0-12.84-.16-19.25.07-3.71.14-5-1.33-4.86-4.89.18-4.11.08-8.23,0-12.34,0-3,1.23-4.43,4.45-4.4q19.5.17,39,0c3.19,0,4.48,1.43,4.53,4.42.08,4.28.14,8.56.31,12.83.12,3.19-1.37,4.39-4.48,4.33C646.12,643.38,639.54,643.46,633,643.46Z" transform="translate(-154 -285.69)" style="fill:#9bdabe"/><path d="M455.44,643.56c-6.44,0-12.87-.11-19.3.05-3.27.07-4.95-.9-4.8-4.46.17-4.28.07-8.58,0-12.87,0-3.08,1.38-4.4,4.54-4.37q19.54.14,39.09,0c3,0,4.21,1.36,4.22,4.15,0,4.62-.05,9.24,0,13.86,0,2.84-1.41,3.68-4,3.65C468.63,643.5,462,643.56,455.44,643.56Z" transform="translate(-154 -285.69)" style="fill:#9bdabe"/><path d="M544.28,643.47c-6.09,0-12.19-.18-18.28.06-4.14.16-5.65-1.58-5.48-5.54.16-3.78,0-7.57.06-11.36,0-3.24,1.55-4.74,4.9-4.72q19.26.12,38.54,0c3.36,0,4.83,1.32,4.71,4.69-.73,20.35,2.85,16.41-16,16.85C549.89,643.53,547.09,643.47,544.28,643.47Z" transform="translate(-154 -285.69)" style="fill:#9bdabe"/><path d="M632.61,608.18c-6.43,0-12.86-.12-19.28,0-3.24.08-4.48-1.35-4.45-4.39,0-4-.28-8,.18-11.85.15-1.32,2.18-3.44,3.38-3.47,13.51-.24,27-.14,40.54-.17,2.74,0,3.83,1.32,3.78,4q-.1,5.69,0,11.37c.06,3.39-1.54,4.62-4.87,4.54C645.46,608.07,639,608.18,632.61,608.18Z" transform="translate(-154 -285.69)" style="fill:#9bdabe"/><path d="M454.94,608.18c-6.26,0-12.52-.12-18.78.05-3.39.09-4.85-1.27-4.79-4.61.33-18.74-2.82-14.91,14.19-15.26,9.39-.19,18.79.1,28.18-.09,3.89-.09,5.58,1,5.61,5.23.13,14.69.28,14.69-14.52,14.69Z" transform="translate(-154 -285.69)" style="fill:#9bdabe"/><path d="M544.43,608.18c-6.26,0-12.53-.11-18.79,0-3.65.09-5.11-1.6-5.08-5,.17-17.71-2.26-14.59,13.85-14.83,9.39-.14,18.8.07,28.19-.06,4-.06,6,1.06,5.9,5.61-.37,16.49,1.85,14.08-14.18,14.28C551,608.22,547.73,608.19,544.43,608.18Z" transform="translate(-154 -285.69)" style="fill:#9bdabe"/><path d="M553.68,305.62c0,3.62-.07,7.24,0,10.85.08,3.17-1.41,4.4-4.49,4.38-17.18-.11-14.29,1.8-14.54-13.71-.07-4.1-.11-8.22,0-12.32.25-6.3,3.45-9.21,9.74-9.13,6.09.09,9,2.91,9.21,9.08C553.77,298.39,553.68,302,553.68,305.62Z" transform="translate(-154 -285.69)" style="fill:#9bdabe"/><path d="M536,423.55c-.09-5.69.28-11.1,4.78-15.47,2.62-2.53,4.65-2.44,7.07.1,4.08,4.3,6.83,17.82,4.38,23.29a4.15,4.15,0,0,1-2.94,2,56.46,56.46,0,0,1-10.32,0c-1.08-.13-2.59-1.8-2.83-3C535.71,428.21,536,425.84,536,423.55Z" transform="translate(-154 -285.69)" style="fill:#9bdabe"/><path d="M543.77,573.86c-3.23-.76-8,1.82-7.91-4.6.12-6.19,4.55-15.19,7.88-15.44s8.53,9,8.55,15.41C552.32,576.4,546.71,572.64,543.77,573.86Z" transform="translate(-154 -285.69)" style="fill:#9bdabe"/></svg>