<svg xmlns="http://www.w3.org/2000/svg" width="949.95" height="522.89" viewBox="0 0 949.95 522.89"><title>shreyas_blr</title><path d="M394.68,425.37c5.57-3.69,10.75-7,15.84-10.51,4.28-2.92,8.27-6.3,12.72-8.91,3.87-2.25,4.85-5.27,4.9-9.43.09-6.71.16-13.51,1.25-20.1,1.31-7.87,6.47-13.31,13.81-16.24,4.15-1.65,5.81-4.05,5.63-8.56-.31-8.3-.18-16.62,0-24.92.06-4-1.08-6.67-4.3-9.65-7.94-7.31-12.39-17-14.46-27.55a63.19,63.19,0,0,1,5.85-42.33,16.64,16.64,0,0,0,1.5-6.94c.21-6.74.16-13.5.08-20.25-.06-4.8,2.4-7.81,6.88-8.2s6.85,2.58,7.75,6.83c.54,2.58,1.23,5.13,1.85,7.69,2.55-1.29,5.19-2.42,7.62-3.91,16-9.83,32-19.83,48.09-29.54,3.84-2.31,5.71-5,5.59-9.56-.2-8.47-.27-17,.11-25.44.53-11.49,7.75-20.17,18.1-22.5,12.25-2.75,23.76,2.09,28.92,12.85,1.65,3.44,2.18,7.64,2.37,11.54.39,8.12.36,16.27.22,24.4a8.23,8.23,0,0,0,4,7.8Q595,208.88,621,225.84c1.07.69,2.47.86,4.4,1.49.17-2.46.3-4.28.41-6.11.33-5.9,2.75-8.71,7.44-8.66s6.92,2.8,7.15,8.9a50.69,50.69,0,0,1,0,6.75c-1,10.4,1.88,19.86,5.38,29.63,7.64,21.38,3.61,41.6-11.34,58.48-4.38,4.95-5.54,9.17-5.43,14.91.15,7.44.18,14.89,0,22.32-.08,3.53,1.38,5.32,4.58,6.53,10.79,4.06,15.68,12.37,16.35,23.53a4,4,0,0,1,0,1c-2.71,13.79,3,22.8,15.35,28.87,6.22,3.05,11.64,7.73,17.54,11.75,3.42-7.36,2.17-9.89-3.93-12.27-2.14-.84-4.25-3.45-5-5.72a5.7,5.7,0,0,1,3.94-7.46c3.59-1.16,4.12-3.46,4.2-6.71.29-11.49,4.34-21.1,14-28.08,6.44-4.64,12.37-10,18.75-14.71a9.63,9.63,0,0,0,4.33-8.78c-.07-2.36-.18-5.4,1.12-7,1.85-2.22,5.22-4.89,7.51-4.54s6.26,4.35,6,6.29c-1.2,9.05,4,13.47,10.42,17.8,5.14,3.47,9.83,7.62,14.84,11.3,9.39,6.9,13.3,16.48,13.69,27.76.1,3,.38,5.39,3.33,7.48,4.92,3.5,3.84,10.26-1.9,12.31-3.14,1.11-4,2.9-4,5.73,0,9.52.07,19.05,0,28.56,0,3.46,1.16,5,4.83,5q48.28-.14,96.57,0c3.31,0,4.71-1.24,4.68-4.55-.07-9.7,0-19.39,0-29.08,0-3.31-1.46-4.54-4.74-5.5-2.43-.72-5.52-3.61-5.84-5.88s1.82-6,4-7.28c2.8-1.72,3.9-3.36,3.94-6.46.17-11.94,4.47-21.75,14.52-28.88,6.19-4.39,11.81-9.58,17.92-14.09,3.26-2.4,4.76-5.11,4.64-9.16-.07-2.51,0-5.68,1.42-7.4,1.71-2.08,5.14-4.32,7.38-3.92s6,4.16,5.78,6c-1.44,9.79,4.75,14.29,11.34,19,4.51,3.19,8.66,6.89,13.16,10.09,10.16,7.23,14.31,17.26,14.64,29.42a9.43,9.43,0,0,0,2.89,5.87c4.74,4.44,4.25,10.42-1.78,12.82-3.41,1.34-3.75,3.62-3.75,6.5q0,17.13,0,34.27V634.63c0,8.43,0,8.44,8.28,8.44,12.11,0,24.22-.06,36.34,0,5.92,0,8.73,2.43,8.68,7.22,0,3.8-1.88,6.31-5.68,6.89a47.28,47.28,0,0,1-7.25.3H78c-2.07,0-4.16.06-6.22-.12-4.26-.37-6.66-2.69-6.69-7.06s2.32-6.83,6.59-7.13c3.44-.24,6.91-.09,10.37-.09,10.21,0,20.43-.13,30.63,0,3.8.06,5.51-1.34,5.27-5.11,0-.86,0-1.73,0-2.6q0-107,0-213.94c0-4.37.22-8.14-5.82-8.87-1.68-.2-4.08-3.7-4.13-5.73,0-2.29,1.63-5.7,3.56-6.71,3.34-1.74,3.76-4,3.76-7.11,0-11.86,4.63-21.34,14.34-28.4,6-4.36,11.52-9.4,17.56-13.7,3.79-2.7,5.7-5.78,5.13-10.44a10.72,10.72,0,0,1,.31-4.62c1.23-3.71,3.61-6.67,7.84-6.24,4,.4,7.38,3.17,6.86,7.14-1.13,8.74,3.67,13.2,10.06,17.38,4.76,3.1,9,7,13.59,10.37,9.62,7.08,14.47,16.49,14.08,28.47-.1,3.2.69,5.24,3.78,7.12,2,1.19,3.55,4.8,3.36,7.17-.17,2.08-2.73,5-4.82,5.65-3.75,1.16-5,3.06-5,6.67.09,9,.13,18,0,27-.06,3.92,1.32,5.62,5.42,5.61q48.28-.15,96.56,0c3.68,0,4.83-1.42,4.78-4.92-.14-9.52-.08-19,0-28.56,0-3.17-.66-5.31-4.52-5.39s-6.1-2.35-6.46-6.17,1-6.5,5-8a6.28,6.28,0,0,0,3.22-4.82c-.43-13.73,5.47-23.82,16.59-31.49,5.67-3.91,10.79-8.63,16.34-12.74,3.08-2.29,4.64-4.95,4.12-8.8a17,17,0,0,1,0-3.11c.21-4.71,3.36-8.47,7.24-8.67a7.87,7.87,0,0,1,7.87,8.53c-.71,7.11,2.66,11.16,8,14.85s10,8,15.1,11.81c9.61,7.12,14.33,16.57,14.17,28.48-.05,3.08.4,5.34,3.55,7.26,4.34,2.64,3.45,9.86-1,12.17C392.63,415.59,392,417.45,394.68,425.37Zm201.57-120c8.47,0,17-.11,25.42.05a8.25,8.25,0,0,0,8-4.34c13.42-21.41,7-49.47-15.11-63.55C596.55,226,578.2,215,559.86,204a16.13,16.13,0,0,0-7.89-2c-8.29-.06-16.6.13-24.88.66a18.81,18.81,0,0,0-8.17,2.59q-26.83,16.14-53.44,32.65C444.92,250.6,437.54,278.35,449,299.4c2.34,4.33,5.22,6.5,10.59,6.35,14.86-.4,29.74-.14,44.62-.14,12.05,0,12.4,0,12-12-.48-14.37,6.42-24.26,17.75-31.83,4.17-2.78,8.9-4.11,12.94-.53,5.1,4.52,11,9.09,13.81,15,3.07,6.37,3.53,14.19,4.21,21.47.7,7.59.22,7.64,8,7.65S588.47,305.34,596.25,305.34ZM256.58,551.48c15.9,0,31.8-.09,47.69,0,4,0,5.66-1.43,5.63-5.42q-.13-18.92,0-37.85c0-4-1.74-5.39-5.7-5.38q-47.68.17-95.38,0c-4.78,0-6.43,1.95-6.38,6.5.13,11.76,0,23.51,0,35.26,0,6.1.77,6.82,6.93,6.83Q233,551.52,256.58,551.48ZM824,565.28c-16.07,0-32.15.08-48.22-.06-3.8,0-5.75.89-5.7,5.16.16,13.31.12,26.62,0,39.93,0,3.3,1.13,4.66,4.51,4.63q18.4-.16,36.81,0c3.71,0,4.83-1.56,4.74-5a95.88,95.88,0,0,1,.27-13.46c.49-4.25,2.64-7.59,7.62-7.59,4.29,0,7,3.2,7.16,8.41.12,4.15.25,8.31,0,12.44-.23,3.77,1,5.27,5,5.22,12.1-.17,24.19-.13,36.29,0,3.7,0,5.22-1.26,5.16-5.15-.18-12.79-.23-25.58,0-38.37.09-4.86-1.81-6.26-6.44-6.2C855.49,565.4,839.76,565.28,824,565.28Zm-567.61,0c-16.08,0-32.15.09-48.22-.06-4.25,0-5.84,1.53-5.79,5.78q.24,19.44,0,38.89c0,3.51,1.14,5.06,4.73,5q18.67-.12,37.33,0c3,0,4.45-1,4.31-4.23-.17-4.14-.07-8.3,0-12.44.09-6,2.68-9.31,7.26-9.37,4.4,0,7.49,3.47,7.78,9.23.2,4,.22,7.95.06,11.92-.14,3.52,1.19,5,4.81,4.92,12.1-.13,24.2-.16,36.29,0,4,.06,5-1.6,4.95-5.27-.14-13-.18-25.93,0-38.89.06-4.35-1.62-5.64-5.82-5.59C288.23,565.39,272.33,565.28,256.43,565.28Zm567-14.09c15.92,0,31.84-.09,47.75.06,4.65,0,6.55-1.69,6.48-6.41q-.25-17.64,0-35.3c.07-4.9-1.84-6.69-6.77-6.67q-47.24.21-94.46,0c-4.9,0-6.34,1.9-6.28,6.43.15,11.77.18,23.54,0,35.3-.08,4.81,1.46,6.8,6.59,6.71C792.26,551,807.83,551.19,823.4,551.19Zm-283-230.79c-23.52,0-47,.06-70.55-.06-4.18,0-5.88,1.25-5.76,5.64.25,9.16.21,18.33,0,27.5-.09,3.9,1.46,5.22,5.19,5.07,4.84-.19,9.69-.13,14.53,0,3.82.09,5.22-1.74,5.15-5.4a87.58,87.58,0,0,1,.3-11.91c.51-4.21,2.86-7.15,7.56-6.87s6.73,3.11,6.88,7.52c.13,4,.2,7.95.08,11.93-.1,3.36,1.5,4.7,4.68,4.69,6.57,0,13.14-.06,19.71,0,3.19.05,4.27-1.54,4.2-4.49-.08-3.29,0-6.58,0-9.86.1-6.32,2.75-9.77,7.52-9.85,4.93-.08,7.72,3.51,7.81,10.09,0,3.29.08,6.58,0,9.86-.05,2.8,1.15,4.12,4,4.09,6.92-.07,13.84-.1,20.75,0,3.16.06,4.33-1.28,4.25-4.34-.11-4.14-.15-8.31.07-12.45.23-4.3,2.35-7.29,7-7.35,4.51-.05,6.47,2.94,6.81,7a107.71,107.71,0,0,1,.32,11.92c-.09,3.81,1.63,5.32,5.31,5.24,4.84-.11,9.69-.16,14.52,0,3.77.14,5.22-1.3,5.13-5.15-.2-8.82-.31-17.65.05-26.46.2-5.12-1.74-6.5-6.6-6.46C586.36,320.5,563.36,320.39,540.36,320.4ZM540,394.6h88.2c1.56,0,3.22.28,4.64-.18,1.24-.4,2.87-1.49,3.17-2.59,2.93-10.76-2.69-18.19-13.6-18.19q-82.23,0-164.47,0c-10.65,0-13.9,3.25-13.94,13.84,0,7.09,0,7.12,7.29,7.12Zm-.5,236.24H365.15c-6.2,0-6.62.68-6.42,6.87.18,5.67,4.21,4.48,7.44,4.48q128.94.06,257.88,0,44.88,0,89.76,0c3.68,0,6.71-.06,6.89-5.3.2-5.48-2.35-6.17-6.87-6.16Q626.67,630.92,539.49,630.84Zm.29-15.94H678.84c7.15,0,7.67-.76,7.19-7.75-.4-5.73-4.51-4.7-8-4.7q-138,0-276,0c-.86,0-1.73.05-2.59,0-3.71-.19-5.26,1.55-5.39,5.26-.23,6.72.1,7.21,7.22,7.21ZM946.4,452.08c0-10.56-.12-21.12.06-31.68.08-4.12-1.12-5.94-5.57-5.87-14.18.2-28.38.15-42.56,0-4.44,0-6.15,1.72-6.12,6.19q.21,31.15,0,62.31c0,4.63,1.82,6,6.18,5.91,14.19-.17,28.38-.22,42.57,0,4.48.08,5.59-1.64,5.51-5.77C946.26,472.85,946.4,462.46,946.4,452.08Zm-812.75-.31c0,10.37.16,20.73-.07,31.09-.1,4.36,1.09,6.13,5.81,6q21-.42,42,0c5.09.09,6.56-1.91,6.52-6.71q-.26-30.59,0-61.16c0-4.94-1.83-6.77-6.71-6.71-13.82.17-27.64.23-41.45,0-4.93-.1-6.24,1.84-6.13,6.42C133.81,431,133.65,441.41,133.65,451.77Zm191.48-.63c0,10.72,0,21.45,0,32.17,0,3.17.64,5.27,4.56,5.24,14.87-.13,29.74-.08,44.61,0,3.49,0,5.07-1.67,5.06-5.06,0-3.63-.11-7.27.05-10.9.13-2.93-1-4.45-3.95-5-5-.92-7.45-4.17-7.52-9.11-.11-8.12-.19-16.26.05-24.38.13-4.25,1.81-7.73,6.8-8.38,4.42-.58,4.74-3.82,4.57-7.36-.2-4-2.81-4.61-6.09-4.6-14.17,0-28.36.15-42.53-.06-4.41-.06-5.72,1.7-5.65,5.82C325.23,430,325.12,440.59,325.13,451.14Zm430.19.95c0-10.73-.07-21.46,0-32.18,0-3.65-1.18-5.38-5.08-5.35-14.53.12-29.06.07-43.59,0-3.09,0-5,1.11-5,4.47,0,3-.24,6.12,4,6.61,5.34.62,7.28,4,7.28,9,0,8,0,15.92,0,23.87,0,4.18-2,7.6-5.71,8.29-5.47,1-5.91,4.21-5.64,8.53a61.2,61.2,0,0,1,0,7.78c-.26,4.11,1.22,5.91,5.64,5.84q21.27-.3,42.55,0c4.43.07,5.66-1.61,5.58-5.76C755.18,472.85,755.32,462.47,755.32,452.09Zm-102-26.57.69-1.93c-4-2.86-8.24-5.47-12-8.63-4.93-4.16-10.36-5.36-16.73-5.28-28.37.38-56.73.48-85.1.49-25.42,0-50.87.38-76.26-.64-13-.52-24.11,2.1-33.63,11-.5.46-1.28.65-1.71,1.15-.77.93-1.38,2-2.61,3.86h7.21c28,0,56.05-.1,84.07.09a13.64,13.64,0,0,0,11.21-5c10.1-11.21,12.63-11.11,23-.1a4.44,4.44,0,0,1,.38.37c2.64,3.75,6.24,4.75,10.78,4.72,28.2-.17,56.39-.08,84.59-.09ZM728.67,614.9c7.26,0,14.52-.12,21.78.05,3.45.08,5-.94,4.93-4.68q-.24-20,0-39.93c0-3.77-1.27-5.17-5.13-5.12q-21.51.24-43,0c-3.94,0-5.65,1.24-5.61,5.34q.2,19.7,0,39.41c0,4,1.67,5.06,5.32,5C714.15,614.78,721.41,614.9,728.67,614.9Zm-377.12.59c7.44,0,14.87-.06,22.3,0,3.84.05,5.63-1.35,5.57-5.49q-.26-18.93,0-37.86c.06-4.59-2.09-6.07-6.33-6-14.17.08-28.35.12-42.52,0-4,0-5.53,1.45-5.49,5.48q.23,19.45,0,38.9c-.05,3.94,1.57,5.13,5.24,5C337.38,615.38,344.47,615.49,351.55,615.49Zm.24-64c7.27,0,14.54-.07,21.8,0,3.85,0,5.8-1.45,5.78-5.48q-.11-18.69,0-37.38c0-4.29-2-5.77-6.08-5.74-14.36.11-28.72.14-43.08,0-3.92,0-5.16,1.61-5.13,5.27q.15,19.21,0,38.42c0,3.48,1.28,5,4.89,4.93C337.26,551.35,344.53,551.47,351.79,551.47Zm488.28,90.76c33.21,0,66.42-.05,99.63,0,4.47,0,6.55-1.24,6.53-6.21,0-4.81-2.07-5.79-6.27-5.78q-99.36.11-198.73.06c-6.14,0-6.72.89-6.55,7,.14,5.37,3.88,4.88,7.31,4.88Q791,642.26,840.07,642.23Zm79.78-91c6.91,0,13.83-.17,20.73.07,4.17.14,5.94-1.23,5.88-5.6-.18-12.44-.14-24.89,0-37.34,0-3.93-1.32-5.51-5.44-5.45-14.17.19-28.34.16-42.51,0-4.4-.05-6.31,1.57-6.26,6.05q.19,18.15,0,36.3c-.05,4.58,2.08,6.08,6.36,6C905.67,551.08,912.76,551.19,919.85,551.19Zm-191.2-48.25c-7.08,0-14.16.14-21.24-.05-3.93-.11-5.78,1.41-5.77,5.37q.08,18.91,0,37.82c0,3.71,1.8,5.17,5.48,5.15q21.5-.15,43,0c3.63,0,4.86-1.56,4.86-5q0-18.91.3-37.82c.06-3.88-1.27-5.67-5.42-5.53C742.81,503.11,735.73,502.94,728.65,502.94ZM160,551.19c7.08,0,14.17-.14,21.25,0,4.55.12,6.67-1.48,6.61-6.29-.18-11.93-.14-23.86,0-35.79,0-4.29-1.46-6.32-6-6.27q-21.53.23-43,0c-3.93-.05-5.15,1.58-5.13,5.22.09,12.62.13,25.24,0,37.86-.05,4.16,1.73,5.4,5.64,5.29C146.15,551.05,153.07,551.19,160,551.19Zm78.38,79.14H140.28c-6.45,0-6.45.37-6.65,6.71-.18,5.88,3.65,5.19,7.27,5.19H336.57c.86,0,1.73-.05,2.59,0,3.13.11,4.14-1.55,4.29-4.5.33-6.83-.08-7.38-7-7.38Zm302.9-89.83v0c-6.74,0-13.47.09-20.2,0-3.86-.08-5.75,1.34-5.71,5.42.11,12.09.08,24.18,0,36.27,0,3.71,1.69,5.31,5.36,5.29q20.21-.09,40.4,0c3.48,0,5-1.41,4.94-4.95q-.15-18.66,0-37.31c0-3.3-1.32-4.71-4.6-4.68C554.74,540.55,548,540.5,541.27,540.5Zm378.58,24.78c-7.08,0-14.18.2-21.25-.07-4.64-.17-6.53,1.4-6.4,6.23.26,9.84.07,19.7.07,29.55,0,15.2,0,15.14,15.54,13.94,3.06-.24,4.29-1.36,4.19-4.45-.15-4.31-.13-8.65.08-13s4.24-8.44,8.41-8.22c4.84.25,5.86,4.09,6.37,8a26.8,26.8,0,0,1,.08,3.11c.16,15.43.15,15.36,15.48,14.5,2.81-.16,4-1,4-3.94q-.13-20.75,0-41.48c0-3.57-1.68-4.35-4.81-4.29C934.37,565.37,927.11,565.28,919.85,565.28ZM633,587.41c6.56,0,13.13-.13,19.69,0,3.94.11,5.65-1.37,5.61-5.42-.13-12.1-.15-24.2,0-36.29,0-4.19-1.86-5.35-5.68-5.31q-19.7.17-39.39,0c-3.73,0-5.31,1.28-5.27,5.12q.19,18.4,0,36.81c0,3.84,1.62,5.19,5.33,5.1C619.91,587.29,626.47,587.41,633,587.41ZM446.57,540.47c-6.39,0-12.79.12-19.17-.05-3.89-.1-5.68,1.23-5.62,5.37q.23,18.13,0,36.29c0,4.1,1.73,5.42,5.64,5.38q19.68-.19,39.38,0c3.73,0,5.34-1.36,5.31-5.15q-.15-18.4,0-36.81c0-3.89-1.68-5.14-5.34-5.06C460.05,540.58,453.31,540.47,446.57,540.47Zm-286,24.81c-6.74,0-13.5.31-20.22-.1-5.14-.31-7.06,1.15-6.83,6.58.42,9.66.12,19.36.12,29,0,14.72,0,14.64,14.54,14.15,3.48-.12,5.05-1.24,4.95-4.86a114.51,114.51,0,0,1,.23-14c.46-4.81,3.8-7.69,7.87-7.18,4.44.55,6.64,3.3,6.71,7.75,0,1.39,0,2.77.05,4.15.05,15.14.05,15.07,15.24,14.11,3.26-.21,4.61-1.41,4.58-4.72q-.13-20,0-40c0-3.93-1.86-5.08-5.44-5C175.11,565.37,167.84,565.29,160.58,565.28Zm95.75-97.95v.32c-13.65,0-27.31-.08-41,0-14.7.12-12.79-1.64-12.88,13.1-.05,6.62.74,7.36,7.53,7.36,28.52,0,57,.1,85.56,0,15.84-.06,13.81,2.55,14.16-14.51.09-4.73-1.42-6.41-6.22-6.34C287.79,467.48,272.06,467.33,256.33,467.33Zm567.16,21.18c13.13,0,26.26.1,39.39,0C878,488.36,877,491,877,474.35c0-6.36-.31-6.66-6.83-6.66-28.5,0-57-.14-85.51,0-16.93.11-14.11-3-14.48,14.95-.09,4.51,1.77,6,6.21,5.91C792.05,488.39,807.77,488.51,823.49,488.51Zm95.67-89.36H943c3,0,5.55-.44,6.05-4.15.95-7-.38-13.15-6.32-17.56-6.94-5.13-13.88-10.28-21.09-15a6.79,6.79,0,0,0-6.19.06c-6.86,4.93-13.44,10.27-20,15.63a16.83,16.83,0,0,0-6.24,14.18c.14,4.49,2.15,7,7.08,6.9C903.93,399,911.55,399.16,919.16,399.15Zm-758.5,0c8,0,15.89,0,23.84,0,4.1,0,6.06-2.1,6.3-5.95a17.76,17.76,0,0,0-7.44-16.2c-6.64-4.94-13.49-9.59-20.08-14.58-2.53-1.91-4.35-1.93-6.82.09-6.27,5.13-12.78,10-19.13,15a16.6,16.6,0,0,0-6.47,14.51c.25,5.84,1.23,7,7,7.09C145.47,399.21,153.07,399.16,160.66,399.15Zm566.83,0v0c8.12,0,16.23,0,24.35,0,3.81,0,5.63-1.64,5.91-5.53.46-6.46-1.08-12.07-6.39-16.06-7-5.27-14.15-10.45-21.44-15.36-1.31-.88-4.24-1-5.4-.16-7.44,5.59-15.12,11-21.61,17.63-3,3-4.21,8.45-4.9,13-.6,4,2,6.65,6.69,6.54C712.29,399,719.89,399.16,727.49,399.16Zm-375.64-.61c7.95,0,15.9-.07,23.84,0,4.6.05,6.66-2.19,6.66-6.64,0-6.06-2.1-11.22-7-14.89-6.75-5.08-13.75-9.83-20.5-14.91-2.74-2.06-4.78-1.7-7.33.38-6,4.91-12.25,9.53-18.35,14.33-4.79,3.77-7,8.67-6.89,14.87.07,4.8,1.87,7,6.76,6.87C336.65,398.43,344.25,398.54,351.85,398.55Zm278.51,43.06c-20.41,0-40.83,0-61.24.06-1.71,0-4.26.41-5,1.54a6.44,6.44,0,0,0,5.57,9.91c40.49,0,81,0,121.46.08,4.39,0,6.07-1.3,6.13-5.93.06-4.86-2-5.75-6.22-5.72C670.85,441.68,650.6,441.61,630.36,441.61ZM450.22,452.78c20.23,0,40.47-.09,60.7.06,4.11,0,5.92-1,5.85-5.51s-1.26-6.1-5.93-6.09q-61,.22-121.91,0c-4.31,0-6.15,1.13-6.18,5.84,0,4.88,2.09,5.74,6.25,5.72C409.41,452.7,429.82,452.77,450.22,452.78ZM673.68,527c0,18,.05,36,0,54,0,3.88.28,6.73,5.43,6.57,4.56-.13,7-1.16,7-6.43q-.23-53.7,0-107.41c0-5.14-2.29-5.94-6.6-6.1-4.59-.17-6,1.42-5.91,6C673.81,491.34,673.68,509.16,673.68,527Zm-267.24.43c0-18-.08-35.94.06-53.91,0-4-.83-6.14-5.42-5.89-4,.21-7,.26-7,5.7q.22,53.91,0,107.83c0,4.79,2,6.27,6.53,6.38s5.88-1.89,5.84-6.2C406.35,563.34,406.44,545.37,406.44,527.4Zm93.48,0c0-17.81.05-35.62-.07-53.43,0-1.87-.65-5.07-1.65-5.35a18.23,18.23,0,0,0-9-.24c-1,.24-1.56,3.82-1.56,5.87-.1,31.13-.07,62.25-.07,93.38,0,5-.18,10,.13,15,.1,1.55,1.21,3.88,2.46,4.38,5.86,2.37,9.78-.46,9.79-6.73Q500,553.86,499.92,527.4Zm92.75.55c0-18.14-.08-36.28.06-54.42,0-4-.88-6.08-5.44-5.95-4.24.12-6.79.76-6.77,5.94q.22,53.64,0,107.29c0,4.47,1.38,6.59,6.22,6.71,5.14.12,6-2.37,6-6.7C592.59,563.2,592.67,545.57,592.67,528Zm40.65-2.43c6.91,0,13.81-.08,20.72,0,3.26.05,4.82-1.2,4.69-4.55-.17-4.48-.23-9-.31-13.46-.06-3.14-1.41-4.66-4.76-4.64q-20.46.13-40.92,0c-3.37,0-4.69,1.44-4.67,4.62,0,4.32.14,8.64,0,13-.16,3.74,1.2,5.27,5.1,5.13C619.85,525.36,626.59,525.53,633.32,525.52Zm-186.24.1c6.93,0,13.85,0,20.77,0,2.73,0,4.26-.85,4.22-3.83-.07-4.84,0-9.69,0-14.54,0-2.93-1.28-4.38-4.42-4.36q-20.5.12-41,0c-3.32,0-4.78,1.36-4.76,4.59,0,4.5.14,9-.05,13.5-.15,3.74,1.61,4.76,5,4.68C433.58,525.51,440.34,525.63,447.08,525.62Zm93.22-.09c2.94,0,5.87.06,8.81,0,19.82-.47,16.06,3.67,16.83-17.69.13-3.53-1.41-4.94-4.93-4.92q-20.22.13-40.45,0c-3.51,0-5.11,1.55-5.13,4.94,0,4,.11,8-.07,11.93-.17,4.15,1.41,6,5.76,5.8C527.5,525.35,533.9,525.53,540.3,525.53Zm92.66-37c6.74,0,13.49-.12,20.23,0,3.49.09,5.17-1.2,5.1-4.76q-.1-6,0-11.93c.05-2.78-1.09-4.17-4-4.16-14.18,0-28.36-.08-42.53.18-1.26,0-3.38,2.25-3.55,3.64-.47,4.09-.14,8.28-.18,12.43,0,3.19,1.26,4.69,4.66,4.6C619.47,488.39,626.22,488.5,633,488.51Zm-186.39,0h10.37c15.52,0,15.37,0,15.24-15.4,0-4.49-1.81-5.58-5.9-5.49-9.84.2-19.7-.11-29.55.1-17.86.37-14.55-3.66-14.9,16-.06,3.5,1.47,4.92,5,4.83C433.43,488.38,440,488.51,446.57,488.51Zm93.88,0c3.46,0,6.92,0,10.38,0,16.82-.21,14.49,2.32,14.87-15,.1-4.78-2-5.95-6.19-5.89-9.85.14-19.72-.08-29.57.07-16.9.25-14.36-3-14.53,15.56,0,3.6,1.49,5.37,5.32,5.28C527.3,488.39,533.88,488.51,540.45,488.51Zm9.7-317.42c0-3.79.1-7.59,0-11.38-.2-6.48-3.27-9.44-9.66-9.53-6.6-.09-10,3-10.21,9.57-.17,4.31-.12,8.63,0,12.94.26,16.26-2.77,14.26,15.26,14.38,3.22,0,4.79-1.28,4.7-4.6C550.08,178.68,550.15,174.89,550.15,171.09ZM531.64,294.81c0,2.41-.34,4.89.14,7.2.26,1.24,1.84,3,3,3.13a57.5,57.5,0,0,0,10.82,0,4.31,4.31,0,0,0,3.08-2.06c2.57-5.74-.31-19.93-4.59-24.43-2.54-2.67-4.67-2.76-7.41-.11C531.93,283.16,531.54,288.84,531.64,294.81Zm8.12,157.7c3.08-1.28,9,2.66,8.94-4.87,0-6.71-5.4-16.43-9-16.16s-8.14,9.71-8.26,16.2C531.34,454.41,536.37,451.71,539.76,452.51Z" transform="translate(-65.05 -134.6)" style="fill:#a22d9d"/><path d="M255.93,536.06a7.39,7.39,0,0,1-7-7.41c0-3.89,3.93-7.68,7.68-7.48,3.58.2,7,4.12,6.82,7.75C263.18,532.76,259.62,536.17,255.93,536.06Z" transform="translate(-65.05 -134.6)" style="fill:#a22d9d"/><path d="M831.16,528.71a7.51,7.51,0,0,1-7.15,7.35,7.71,7.71,0,0,1-7.36-7.23c-.1-3.75,3.87-7.79,7.53-7.67S831.21,524.91,831.16,528.71Z" transform="translate(-65.05 -134.6)" style="fill:#a22d9d"/><path d="M912.17,451.07c0-3.11-.1-6.21,0-9.31.18-4.25,3.13-6.24,6.76-6.55,3.47-.29,7,1.38,7.22,5.2a151.19,151.19,0,0,1,0,21.6c-.28,3.75-3.52,6.11-7.44,5.64s-6.55-2.93-6.63-7.27c-.06-3.1,0-6.21,0-9.31Z" transform="translate(-65.05 -134.6)" style="fill:#a22d9d"/><path d="M167.87,451.61c0,3.11.13,6.22,0,9.32-.21,4.1-3,6.85-6.57,6.53-2.61-.24-6.88-3-7.1-5a103.39,103.39,0,0,1,.08-22.52c.2-1.84,4.38-4.36,6.89-4.56a6.08,6.08,0,0,1,6.63,5.92c.22,3.43,0,6.89,0,10.34Z" transform="translate(-65.05 -134.6)" style="fill:#a22d9d"/><path d="M359.35,451.61c0,3.11.15,6.22,0,9.32-.24,4-2.93,6.9-6.55,6.53-2.63-.27-6.89-3-7.1-5a102.86,102.86,0,0,1,.1-22.53c.2-1.84,4.36-4.32,6.88-4.56a6,6,0,0,1,6.6,5.91c.23,3.44.05,6.9.05,10.35Z" transform="translate(-65.05 -134.6)" style="fill:#a22d9d"/><path d="M720.71,450.91c0-3.11-.12-6.23,0-9.33.21-4.22,3.15-6.26,6.81-6.54s6.87,1.63,7.12,5.39a154.89,154.89,0,0,1,0,21.65c-.29,3.81-3.61,6-7.52,5.57a6.77,6.77,0,0,1-6.47-6.88c-.15-3.28,0-6.57,0-9.86Z" transform="translate(-65.05 -134.6)" style="fill:#a22d9d"/><path d="M727.87,583.53a7.14,7.14,0,0,1,7.18,7.25c.13,4.2-3.24,7.91-7.19,7.91a7.55,7.55,0,0,1-7.14-7.35C720.62,586.87,723.63,583.58,727.87,583.53Z" transform="translate(-65.05 -134.6)" style="fill:#a22d9d"/><path d="M350.9,599a7.83,7.83,0,0,1-7.34-7.8c.17-3.82,4.16-7.57,7.88-7.39,3.54.18,7.15,4,7.13,7.6C358.56,595.22,354.67,599.07,350.9,599Z" transform="translate(-65.05 -134.6)" style="fill:#a22d9d"/><path d="M351.09,536.06a7.85,7.85,0,0,1-7.52-7.17c-.08-3.69,4-7.8,7.67-7.72,3.47.07,7.38,4.09,7.31,7.52S354.64,536,351.09,536.06Z" transform="translate(-65.05 -134.6)" style="fill:#a22d9d"/><path d="M926.61,528.82a7.67,7.67,0,0,1-7.33,7.25,7.29,7.29,0,0,1-7.07-7.86c.19-3.71,3.91-7.21,7.5-7S926.74,525.09,926.61,528.82Z" transform="translate(-65.05 -134.6)" style="fill:#a22d9d"/><path d="M735,528.75a7.42,7.42,0,0,1-7.16,7.31,7.18,7.18,0,0,1-7.11-7.76c.18-3.74,3.8-7.22,7.4-7.14S735.11,524.82,735,528.75Z" transform="translate(-65.05 -134.6)" style="fill:#a22d9d"/><path d="M160.74,520.82a7.31,7.31,0,0,1,7.13,7.34c.1,4.37-3.06,7.87-7.14,7.91a7.7,7.7,0,0,1-7.33-7.33C153.26,524.77,156.88,520.87,160.74,520.82Z" transform="translate(-65.05 -134.6)" style="fill:#a22d9d"/></svg>